<mxfile host="app.diagrams.net" agent="Mozilla/5.0 (Windows NT 10.0; Win64; x64) AppleWebKit/537.36 (KHTML, like Gecko) Chrome/129.0.0.0 Safari/537.36" version="24.7.14">
  <diagram name="PÃ¡gina-1" id="9aXRrY4oMHYwFgfl_2Pk">
    <mxGraphModel dx="1930" dy="1743" grid="1" gridSize="10" guides="1" tooltips="1" connect="1" arrows="1" fold="1" page="1" pageScale="1" pageWidth="827" pageHeight="1169" math="0" shadow="0">
      <root>
        <mxCell id="0" />
        <mxCell id="1" parent="0" />
        <mxCell id="0RgSkUHmzJIzv2QEmfjK-1" value="Gatitos" style="rounded=0;whiteSpace=wrap;html=1;fillColor=#dae8fc;strokeColor=#6c8ebf;" parent="1" vertex="1">
          <mxGeometry x="230" y="40" width="90" height="40" as="geometry" />
        </mxCell>
        <mxCell id="0RgSkUHmzJIzv2QEmfjK-2" value="Fotos_gatitos" style="rounded=0;whiteSpace=wrap;html=1;fillColor=#dae8fc;strokeColor=#6c8ebf;" parent="1" vertex="1">
          <mxGeometry x="-30" y="30" width="90" height="40" as="geometry" />
        </mxCell>
        <mxCell id="0RgSkUHmzJIzv2QEmfjK-3" value="Usuarios" style="rounded=0;whiteSpace=wrap;html=1;fillColor=#dae8fc;strokeColor=#6c8ebf;" parent="1" vertex="1">
          <mxGeometry x="230" y="275" width="90" height="40" as="geometry" />
        </mxCell>
        <mxCell id="0RgSkUHmzJIzv2QEmfjK-4" value="Adopciones" style="rounded=0;whiteSpace=wrap;html=1;fillColor=#dae8fc;strokeColor=#6c8ebf;" parent="1" vertex="1">
          <mxGeometry x="30" y="160" width="90" height="40" as="geometry" />
        </mxCell>
        <mxCell id="0RgSkUHmzJIzv2QEmfjK-5" value="Voluntarios" style="rounded=0;whiteSpace=wrap;html=1;fillColor=#dae8fc;strokeColor=#6c8ebf;" parent="1" vertex="1">
          <mxGeometry x="520" y="40" width="90" height="40" as="geometry" />
        </mxCell>
        <mxCell id="0RgSkUHmzJIzv2QEmfjK-10" value="productos" style="rounded=0;whiteSpace=wrap;html=1;fillColor=#dae8fc;strokeColor=#6c8ebf;" parent="1" vertex="1">
          <mxGeometry x="890" y="275" width="110" height="40" as="geometry" />
        </mxCell>
        <mxCell id="0RgSkUHmzJIzv2QEmfjK-14" value="tiene" style="shape=rhombus;perimeter=rhombusPerimeter;whiteSpace=wrap;html=1;align=center;fillColor=#d5e8d4;strokeColor=#82b366;" parent="1" vertex="1">
          <mxGeometry x="125" y="45" width="80" height="30" as="geometry" />
        </mxCell>
        <mxCell id="0RgSkUHmzJIzv2QEmfjK-19" value="" style="endArrow=none;html=1;rounded=0;exitX=1;exitY=0.5;exitDx=0;exitDy=0;entryX=0;entryY=0.5;entryDx=0;entryDy=0;" parent="1" source="0RgSkUHmzJIzv2QEmfjK-14" target="0RgSkUHmzJIzv2QEmfjK-1" edge="1">
          <mxGeometry relative="1" as="geometry">
            <mxPoint x="80" y="120" as="sourcePoint" />
            <mxPoint x="240" y="120" as="targetPoint" />
          </mxGeometry>
        </mxCell>
        <mxCell id="0RgSkUHmzJIzv2QEmfjK-21" value="" style="endArrow=none;html=1;rounded=0;exitX=0;exitY=0.5;exitDx=0;exitDy=0;entryX=1;entryY=0.5;entryDx=0;entryDy=0;" parent="1" source="0RgSkUHmzJIzv2QEmfjK-14" target="0RgSkUHmzJIzv2QEmfjK-2" edge="1">
          <mxGeometry relative="1" as="geometry">
            <mxPoint x="290" y="190" as="sourcePoint" />
            <mxPoint x="100" y="10" as="targetPoint" />
          </mxGeometry>
        </mxCell>
        <mxCell id="0RgSkUHmzJIzv2QEmfjK-23" value="&lt;font style=&quot;font-size: 11px;&quot;&gt;Foto_ID&lt;/font&gt;" style="ellipse;whiteSpace=wrap;html=1;align=center;fillColor=#e1d5e7;strokeColor=#9673a6;" parent="1" vertex="1">
          <mxGeometry x="-40" y="-17.5" width="60" height="20" as="geometry" />
        </mxCell>
        <mxCell id="0RgSkUHmzJIzv2QEmfjK-24" value="" style="endArrow=none;html=1;rounded=0;exitX=0.5;exitY=1;exitDx=0;exitDy=0;entryX=0.5;entryY=0;entryDx=0;entryDy=0;" parent="1" source="0RgSkUHmzJIzv2QEmfjK-23" target="0RgSkUHmzJIzv2QEmfjK-2" edge="1">
          <mxGeometry relative="1" as="geometry">
            <mxPoint x="290" y="170" as="sourcePoint" />
            <mxPoint x="450" y="170" as="targetPoint" />
          </mxGeometry>
        </mxCell>
        <mxCell id="0RgSkUHmzJIzv2QEmfjK-25" value="&lt;font style=&quot;font-size: 11px;&quot;&gt;Gatito_ID&lt;/font&gt;" style="ellipse;whiteSpace=wrap;html=1;align=center;fillColor=#e1d5e7;strokeColor=#9673a6;" parent="1" vertex="1">
          <mxGeometry x="287.5" y="2.5" width="72.5" height="17.5" as="geometry" />
        </mxCell>
        <mxCell id="0RgSkUHmzJIzv2QEmfjK-26" value="" style="endArrow=none;html=1;rounded=0;exitX=0.449;exitY=0.008;exitDx=0;exitDy=0;exitPerimeter=0;entryX=0.5;entryY=1;entryDx=0;entryDy=0;" parent="1" source="0RgSkUHmzJIzv2QEmfjK-1" target="0RgSkUHmzJIzv2QEmfjK-25" edge="1">
          <mxGeometry relative="1" as="geometry">
            <mxPoint x="290" y="170" as="sourcePoint" />
            <mxPoint x="450" y="170" as="targetPoint" />
          </mxGeometry>
        </mxCell>
        <mxCell id="0RgSkUHmzJIzv2QEmfjK-27" value="&lt;font style=&quot;font-size: 11px;&quot;&gt;Voluntario_ID&lt;/font&gt;" style="ellipse;whiteSpace=wrap;html=1;align=center;fillColor=#e1d5e7;strokeColor=#9673a6;" parent="1" vertex="1">
          <mxGeometry x="550" y="105" width="80" height="25" as="geometry" />
        </mxCell>
        <mxCell id="0RgSkUHmzJIzv2QEmfjK-29" value="" style="endArrow=none;html=1;rounded=0;exitX=0.5;exitY=1;exitDx=0;exitDy=0;entryX=0.5;entryY=0;entryDx=0;entryDy=0;" parent="1" source="0RgSkUHmzJIzv2QEmfjK-5" target="0RgSkUHmzJIzv2QEmfjK-27" edge="1">
          <mxGeometry relative="1" as="geometry">
            <mxPoint x="440" y="190" as="sourcePoint" />
            <mxPoint x="600" y="190" as="targetPoint" />
          </mxGeometry>
        </mxCell>
        <mxCell id="0RgSkUHmzJIzv2QEmfjK-33" value="puede" style="shape=rhombus;perimeter=rhombusPerimeter;whiteSpace=wrap;html=1;align=center;fillColor=#d5e8d4;strokeColor=#82b366;" parent="1" vertex="1">
          <mxGeometry x="110" y="280" width="70" height="30" as="geometry" />
        </mxCell>
        <mxCell id="0RgSkUHmzJIzv2QEmfjK-34" value="" style="endArrow=none;html=1;rounded=0;entryX=-0.035;entryY=0.397;entryDx=0;entryDy=0;entryPerimeter=0;exitX=1;exitY=0.5;exitDx=0;exitDy=0;" parent="1" source="0RgSkUHmzJIzv2QEmfjK-33" target="0RgSkUHmzJIzv2QEmfjK-3" edge="1">
          <mxGeometry relative="1" as="geometry">
            <mxPoint x="170" y="270" as="sourcePoint" />
            <mxPoint x="450" y="170" as="targetPoint" />
          </mxGeometry>
        </mxCell>
        <mxCell id="0RgSkUHmzJIzv2QEmfjK-36" value="" style="endArrow=none;html=1;rounded=0;exitX=0;exitY=0.5;exitDx=0;exitDy=0;entryX=0.75;entryY=1;entryDx=0;entryDy=0;" parent="1" source="0RgSkUHmzJIzv2QEmfjK-33" target="0RgSkUHmzJIzv2QEmfjK-4" edge="1">
          <mxGeometry relative="1" as="geometry">
            <mxPoint x="290" y="170" as="sourcePoint" />
            <mxPoint x="260" y="90" as="targetPoint" />
          </mxGeometry>
        </mxCell>
        <mxCell id="0RgSkUHmzJIzv2QEmfjK-38" value="&lt;font style=&quot;font-size: 11px;&quot;&gt;Adoptante_ID&lt;/font&gt;" style="ellipse;whiteSpace=wrap;html=1;align=center;fillColor=#e1d5e7;strokeColor=#9673a6;" parent="1" vertex="1">
          <mxGeometry x="270" y="340" width="85" height="20" as="geometry" />
        </mxCell>
        <mxCell id="0RgSkUHmzJIzv2QEmfjK-39" value="" style="endArrow=none;html=1;rounded=0;exitX=0.577;exitY=0.994;exitDx=0;exitDy=0;entryX=0.5;entryY=0;entryDx=0;entryDy=0;exitPerimeter=0;" parent="1" source="0RgSkUHmzJIzv2QEmfjK-3" target="0RgSkUHmzJIzv2QEmfjK-38" edge="1">
          <mxGeometry relative="1" as="geometry">
            <mxPoint x="290" y="170" as="sourcePoint" />
            <mxPoint x="450" y="170" as="targetPoint" />
          </mxGeometry>
        </mxCell>
        <mxCell id="0RgSkUHmzJIzv2QEmfjK-40" value="puede" style="shape=rhombus;perimeter=rhombusPerimeter;whiteSpace=wrap;html=1;align=center;fillColor=#d5e8d4;strokeColor=#82b366;" parent="1" vertex="1">
          <mxGeometry x="395" y="45" width="80" height="30" as="geometry" />
        </mxCell>
        <mxCell id="0RgSkUHmzJIzv2QEmfjK-45" value="" style="endArrow=none;html=1;rounded=0;entryX=1;entryY=0.5;entryDx=0;entryDy=0;exitX=0;exitY=0.5;exitDx=0;exitDy=0;" parent="1" source="0RgSkUHmzJIzv2QEmfjK-40" target="0RgSkUHmzJIzv2QEmfjK-1" edge="1">
          <mxGeometry relative="1" as="geometry">
            <mxPoint x="280" y="134.72" as="sourcePoint" />
            <mxPoint x="440" y="134.72" as="targetPoint" />
          </mxGeometry>
        </mxCell>
        <mxCell id="0RgSkUHmzJIzv2QEmfjK-66" value="&lt;span style=&quot;font-size: 10px;&quot;&gt;N:1&lt;/span&gt;" style="text;html=1;align=center;verticalAlign=middle;resizable=0;points=[];autosize=1;strokeColor=none;fillColor=none;" parent="1" vertex="1">
          <mxGeometry x="415" y="20" width="40" height="30" as="geometry" />
        </mxCell>
        <mxCell id="0RgSkUHmzJIzv2QEmfjK-67" value="&lt;font style=&quot;font-size: 10px;&quot;&gt;N:1&lt;/font&gt;" style="text;html=1;align=center;verticalAlign=middle;resizable=0;points=[];autosize=1;strokeColor=none;fillColor=none;" parent="1" vertex="1">
          <mxGeometry x="145" y="20" width="40" height="30" as="geometry" />
        </mxCell>
        <mxCell id="0RgSkUHmzJIzv2QEmfjK-71" value="puede" style="shape=rhombus;perimeter=rhombusPerimeter;whiteSpace=wrap;html=1;align=center;fillColor=#d5e8d4;strokeColor=#82b366;" parent="1" vertex="1">
          <mxGeometry x="130" y="115" width="70" height="30" as="geometry" />
        </mxCell>
        <mxCell id="0RgSkUHmzJIzv2QEmfjK-72" value="&lt;font style=&quot;font-size: 10px;&quot;&gt;N:1&lt;/font&gt;" style="text;html=1;align=center;verticalAlign=middle;resizable=0;points=[];autosize=1;strokeColor=none;fillColor=none;" parent="1" vertex="1">
          <mxGeometry x="130" y="260" width="40" height="30" as="geometry" />
        </mxCell>
        <mxCell id="0RgSkUHmzJIzv2QEmfjK-73" value="" style="endArrow=none;html=1;rounded=0;exitX=0.5;exitY=0;exitDx=0;exitDy=0;entryX=0;entryY=0.5;entryDx=0;entryDy=0;" parent="1" source="0RgSkUHmzJIzv2QEmfjK-4" target="0RgSkUHmzJIzv2QEmfjK-71" edge="1">
          <mxGeometry relative="1" as="geometry">
            <mxPoint x="300" y="170" as="sourcePoint" />
            <mxPoint x="460" y="170" as="targetPoint" />
          </mxGeometry>
        </mxCell>
        <mxCell id="0RgSkUHmzJIzv2QEmfjK-74" value="" style="endArrow=none;html=1;rounded=0;exitX=1;exitY=0.5;exitDx=0;exitDy=0;entryX=0;entryY=1;entryDx=0;entryDy=0;" parent="1" source="0RgSkUHmzJIzv2QEmfjK-71" target="0RgSkUHmzJIzv2QEmfjK-1" edge="1">
          <mxGeometry relative="1" as="geometry">
            <mxPoint x="75" y="180" as="sourcePoint" />
            <mxPoint x="140" y="140" as="targetPoint" />
          </mxGeometry>
        </mxCell>
        <mxCell id="0RgSkUHmzJIzv2QEmfjK-75" value="&lt;font style=&quot;font-size: 10px;&quot;&gt;1:1&lt;/font&gt;" style="text;html=1;align=center;verticalAlign=middle;resizable=0;points=[];autosize=1;strokeColor=none;fillColor=none;" parent="1" vertex="1">
          <mxGeometry x="145" y="95" width="40" height="30" as="geometry" />
        </mxCell>
        <mxCell id="0RgSkUHmzJIzv2QEmfjK-76" value="&lt;span style=&quot;font-size: 11px;&quot;&gt;id&lt;/span&gt;" style="ellipse;whiteSpace=wrap;html=1;align=center;fillColor=#e1d5e7;strokeColor=#9673a6;" parent="1" vertex="1">
          <mxGeometry x="960" y="340" width="70" height="20" as="geometry" />
        </mxCell>
        <mxCell id="0RgSkUHmzJIzv2QEmfjK-77" value="&lt;font style=&quot;font-size: 11px;&quot;&gt;Adopcion_ID&lt;/font&gt;" style="ellipse;whiteSpace=wrap;html=1;align=center;fillColor=#e1d5e7;strokeColor=#9673a6;" parent="1" vertex="1">
          <mxGeometry x="10" y="220" width="70" height="20" as="geometry" />
        </mxCell>
        <mxCell id="0RgSkUHmzJIzv2QEmfjK-78" value="" style="endArrow=none;html=1;rounded=0;exitX=0.5;exitY=0;exitDx=0;exitDy=0;entryX=0.326;entryY=0.994;entryDx=0;entryDy=0;entryPerimeter=0;" parent="1" source="0RgSkUHmzJIzv2QEmfjK-77" target="0RgSkUHmzJIzv2QEmfjK-4" edge="1">
          <mxGeometry relative="1" as="geometry">
            <mxPoint x="300" y="170" as="sourcePoint" />
            <mxPoint x="460" y="170" as="targetPoint" />
          </mxGeometry>
        </mxCell>
        <mxCell id="0RgSkUHmzJIzv2QEmfjK-79" value="" style="endArrow=none;html=1;rounded=0;entryX=0.5;entryY=1;entryDx=0;entryDy=0;exitX=0.5;exitY=0;exitDx=0;exitDy=0;" parent="1" source="0RgSkUHmzJIzv2QEmfjK-76" target="0RgSkUHmzJIzv2QEmfjK-10" edge="1">
          <mxGeometry relative="1" as="geometry">
            <mxPoint x="430" y="280" as="sourcePoint" />
            <mxPoint x="427.25" y="255.12" as="targetPoint" />
          </mxGeometry>
        </mxCell>
        <mxCell id="SfKznPpQNmSHOADoCNZN-2" value="" style="endArrow=none;html=1;rounded=0;exitX=1;exitY=0.5;exitDx=0;exitDy=0;entryX=0;entryY=0.5;entryDx=0;entryDy=0;" parent="1" source="0RgSkUHmzJIzv2QEmfjK-40" target="0RgSkUHmzJIzv2QEmfjK-5" edge="1">
          <mxGeometry relative="1" as="geometry">
            <mxPoint x="340" y="190" as="sourcePoint" />
            <mxPoint x="500" y="190" as="targetPoint" />
          </mxGeometry>
        </mxCell>
        <mxCell id="l4DTSEyUlSYrcDV8yp1g-2" value="Veterinarias" style="whiteSpace=wrap;html=1;align=center;fillColor=#dae8fc;strokeColor=#6c8ebf;" parent="1" vertex="1">
          <mxGeometry x="710" y="95" width="100" height="40" as="geometry" />
        </mxCell>
        <mxCell id="l4DTSEyUlSYrcDV8yp1g-3" value="Veterinaria_ID" style="ellipse;whiteSpace=wrap;html=1;align=center;fillColor=#e1d5e7;strokeColor=#9673a6;" parent="1" vertex="1">
          <mxGeometry x="780" y="145" width="95" height="30" as="geometry" />
        </mxCell>
        <mxCell id="l4DTSEyUlSYrcDV8yp1g-4" value="" style="endArrow=none;html=1;rounded=0;exitX=0.65;exitY=0.975;exitDx=0;exitDy=0;exitPerimeter=0;" parent="1" source="l4DTSEyUlSYrcDV8yp1g-2" target="l4DTSEyUlSYrcDV8yp1g-3" edge="1">
          <mxGeometry relative="1" as="geometry">
            <mxPoint x="450" y="180" as="sourcePoint" />
            <mxPoint x="610" y="180" as="targetPoint" />
          </mxGeometry>
        </mxCell>
        <mxCell id="WT8EEHVQxmk8-wPoOOAQ-1" value="Historial_mÃ©dico" style="whiteSpace=wrap;html=1;align=center;fillColor=#dae8fc;strokeColor=#6c8ebf;" parent="1" vertex="1">
          <mxGeometry x="225" y="-130" width="100" height="30" as="geometry" />
        </mxCell>
        <mxCell id="WT8EEHVQxmk8-wPoOOAQ-2" value="&lt;font style=&quot;font-size: 11px;&quot;&gt;Historial_ID&lt;/font&gt;" style="ellipse;whiteSpace=wrap;html=1;align=center;fillColor=#e1d5e7;strokeColor=#9673a6;" parent="1" vertex="1">
          <mxGeometry x="197.5" y="-170" width="72.5" height="17.5" as="geometry" />
        </mxCell>
        <mxCell id="WT8EEHVQxmk8-wPoOOAQ-3" value="tiene" style="shape=rhombus;perimeter=rhombusPerimeter;whiteSpace=wrap;html=1;align=center;fillColor=#d5e8d4;strokeColor=#82b366;" parent="1" vertex="1">
          <mxGeometry x="235" y="-60" width="80" height="30" as="geometry" />
        </mxCell>
        <mxCell id="WT8EEHVQxmk8-wPoOOAQ-4" value="" style="endArrow=none;html=1;rounded=0;exitX=0.25;exitY=0;exitDx=0;exitDy=0;entryX=0;entryY=0.5;entryDx=0;entryDy=0;" parent="1" source="0RgSkUHmzJIzv2QEmfjK-1" target="WT8EEHVQxmk8-wPoOOAQ-3" edge="1">
          <mxGeometry relative="1" as="geometry">
            <mxPoint x="280" y="50" as="sourcePoint" />
            <mxPoint x="310" y="11" as="targetPoint" />
          </mxGeometry>
        </mxCell>
        <mxCell id="WT8EEHVQxmk8-wPoOOAQ-5" value="" style="endArrow=none;html=1;rounded=0;exitX=1;exitY=0.5;exitDx=0;exitDy=0;entryX=0.5;entryY=1;entryDx=0;entryDy=0;" parent="1" source="WT8EEHVQxmk8-wPoOOAQ-3" target="WT8EEHVQxmk8-wPoOOAQ-1" edge="1">
          <mxGeometry relative="1" as="geometry">
            <mxPoint x="263" y="50" as="sourcePoint" />
            <mxPoint x="245" y="-35" as="targetPoint" />
          </mxGeometry>
        </mxCell>
        <mxCell id="WT8EEHVQxmk8-wPoOOAQ-6" value="&lt;font style=&quot;font-size: 10px;&quot;&gt;1:1&lt;/font&gt;" style="text;html=1;align=center;verticalAlign=middle;resizable=0;points=[];autosize=1;strokeColor=none;fillColor=none;" parent="1" vertex="1">
          <mxGeometry x="255" y="-80" width="40" height="30" as="geometry" />
        </mxCell>
        <mxCell id="WT8EEHVQxmk8-wPoOOAQ-7" value="" style="endArrow=none;html=1;rounded=0;exitX=0.358;exitY=0.021;exitDx=0;exitDy=0;entryX=0.404;entryY=0.971;entryDx=0;entryDy=0;entryPerimeter=0;exitPerimeter=0;" parent="1" source="WT8EEHVQxmk8-wPoOOAQ-1" target="WT8EEHVQxmk8-wPoOOAQ-2" edge="1">
          <mxGeometry relative="1" as="geometry">
            <mxPoint x="325" y="-35" as="sourcePoint" />
            <mxPoint x="285" y="-90" as="targetPoint" />
          </mxGeometry>
        </mxCell>
        <mxCell id="tHhZXnsS2NIdEHAOo0EO-1" value="puede" style="shape=rhombus;perimeter=rhombusPerimeter;whiteSpace=wrap;html=1;align=center;fillColor=#d5e8d4;strokeColor=#82b366;" parent="1" vertex="1">
          <mxGeometry x="400" y="280" width="70" height="30" as="geometry" />
        </mxCell>
        <mxCell id="tHhZXnsS2NIdEHAOo0EO-2" value="Ventas" style="rounded=0;whiteSpace=wrap;html=1;fillColor=#dae8fc;strokeColor=#6c8ebf;" parent="1" vertex="1">
          <mxGeometry x="560" y="275" width="110" height="40" as="geometry" />
        </mxCell>
        <mxCell id="tHhZXnsS2NIdEHAOo0EO-4" value="puede" style="shape=rhombus;perimeter=rhombusPerimeter;whiteSpace=wrap;html=1;align=center;fillColor=#d5e8d4;strokeColor=#82b366;" parent="1" vertex="1">
          <mxGeometry x="745" y="280" width="70" height="30" as="geometry" />
        </mxCell>
        <mxCell id="tHhZXnsS2NIdEHAOo0EO-5" value="" style="endArrow=none;html=1;rounded=0;entryX=0;entryY=0.5;entryDx=0;entryDy=0;exitX=1;exitY=0.5;exitDx=0;exitDy=0;" parent="1" source="0RgSkUHmzJIzv2QEmfjK-3" target="tHhZXnsS2NIdEHAOo0EO-1" edge="1">
          <mxGeometry relative="1" as="geometry">
            <mxPoint x="195" y="305" as="sourcePoint" />
            <mxPoint x="237" y="306" as="targetPoint" />
          </mxGeometry>
        </mxCell>
        <mxCell id="tHhZXnsS2NIdEHAOo0EO-6" value="" style="endArrow=none;html=1;rounded=0;entryX=1;entryY=0.5;entryDx=0;entryDy=0;exitX=0;exitY=0.5;exitDx=0;exitDy=0;" parent="1" source="tHhZXnsS2NIdEHAOo0EO-2" target="tHhZXnsS2NIdEHAOo0EO-1" edge="1">
          <mxGeometry relative="1" as="geometry">
            <mxPoint x="330" y="310" as="sourcePoint" />
            <mxPoint x="405" y="310" as="targetPoint" />
          </mxGeometry>
        </mxCell>
        <mxCell id="tHhZXnsS2NIdEHAOo0EO-7" value="" style="endArrow=none;html=1;rounded=0;entryX=1;entryY=0.5;entryDx=0;entryDy=0;exitX=0;exitY=0.5;exitDx=0;exitDy=0;" parent="1" source="tHhZXnsS2NIdEHAOo0EO-4" target="tHhZXnsS2NIdEHAOo0EO-2" edge="1">
          <mxGeometry relative="1" as="geometry">
            <mxPoint x="340" y="320" as="sourcePoint" />
            <mxPoint x="415" y="320" as="targetPoint" />
          </mxGeometry>
        </mxCell>
        <mxCell id="tHhZXnsS2NIdEHAOo0EO-8" value="" style="endArrow=none;html=1;rounded=0;entryX=1;entryY=0.5;entryDx=0;entryDy=0;exitX=0;exitY=0.5;exitDx=0;exitDy=0;" parent="1" source="0RgSkUHmzJIzv2QEmfjK-10" target="tHhZXnsS2NIdEHAOo0EO-4" edge="1">
          <mxGeometry relative="1" as="geometry">
            <mxPoint x="350" y="330" as="sourcePoint" />
            <mxPoint x="425" y="330" as="targetPoint" />
          </mxGeometry>
        </mxCell>
        <mxCell id="tHhZXnsS2NIdEHAOo0EO-9" value="&lt;font style=&quot;font-size: 10px;&quot;&gt;N:M&lt;/font&gt;" style="text;html=1;align=center;verticalAlign=middle;resizable=0;points=[];autosize=1;strokeColor=none;fillColor=none;" parent="1" vertex="1">
          <mxGeometry x="760" y="240" width="40" height="30" as="geometry" />
        </mxCell>
        <mxCell id="tHhZXnsS2NIdEHAOo0EO-11" value="&lt;font style=&quot;font-size: 10px;&quot;&gt;1:N&lt;/font&gt;" style="text;html=1;align=center;verticalAlign=middle;resizable=0;points=[];autosize=1;strokeColor=none;fillColor=none;" parent="1" vertex="1">
          <mxGeometry x="415" y="250" width="40" height="30" as="geometry" />
        </mxCell>
        <mxCell id="ql6_-VDOV2YUnVmAjNdF-1" value="veterianaria_especialidad" style="whiteSpace=wrap;html=1;align=center;fillColor=#dae8fc;strokeColor=#6c8ebf;" vertex="1" parent="1">
          <mxGeometry x="710" y="-40" width="150" height="40" as="geometry" />
        </mxCell>
        <mxCell id="ql6_-VDOV2YUnVmAjNdF-2" value="Veterinaria_ID" style="ellipse;whiteSpace=wrap;html=1;align=center;fillColor=#e1d5e7;strokeColor=#9673a6;" vertex="1" parent="1">
          <mxGeometry x="770" y="-100" width="95" height="30" as="geometry" />
        </mxCell>
        <mxCell id="ql6_-VDOV2YUnVmAjNdF-3" value="" style="endArrow=none;html=1;rounded=0;exitX=0.462;exitY=0.021;exitDx=0;exitDy=0;exitPerimeter=0;entryX=0.5;entryY=1;entryDx=0;entryDy=0;" edge="1" parent="1" source="ql6_-VDOV2YUnVmAjNdF-1" target="ql6_-VDOV2YUnVmAjNdF-2">
          <mxGeometry relative="1" as="geometry">
            <mxPoint x="785" y="104" as="sourcePoint" />
            <mxPoint x="804" y="126" as="targetPoint" />
          </mxGeometry>
        </mxCell>
        <mxCell id="ql6_-VDOV2YUnVmAjNdF-4" value="puede" style="shape=rhombus;perimeter=rhombusPerimeter;whiteSpace=wrap;html=1;align=center;fillColor=#d5e8d4;strokeColor=#82b366;" vertex="1" parent="1">
          <mxGeometry x="720" y="35" width="80" height="30" as="geometry" />
        </mxCell>
        <mxCell id="ql6_-VDOV2YUnVmAjNdF-5" value="" style="endArrow=none;html=1;rounded=0;entryX=1;entryY=0.5;entryDx=0;entryDy=0;exitX=0.385;exitY=-0.008;exitDx=0;exitDy=0;exitPerimeter=0;" edge="1" parent="1" source="l4DTSEyUlSYrcDV8yp1g-2" target="ql6_-VDOV2YUnVmAjNdF-4">
          <mxGeometry relative="1" as="geometry">
            <mxPoint x="405" y="70" as="sourcePoint" />
            <mxPoint x="330" y="70" as="targetPoint" />
          </mxGeometry>
        </mxCell>
        <mxCell id="ql6_-VDOV2YUnVmAjNdF-6" value="" style="endArrow=none;html=1;rounded=0;entryX=0;entryY=0.5;entryDx=0;entryDy=0;exitX=0.451;exitY=1.06;exitDx=0;exitDy=0;exitPerimeter=0;" edge="1" parent="1" source="ql6_-VDOV2YUnVmAjNdF-1" target="ql6_-VDOV2YUnVmAjNdF-4">
          <mxGeometry relative="1" as="geometry">
            <mxPoint x="415" y="80" as="sourcePoint" />
            <mxPoint x="340" y="80" as="targetPoint" />
          </mxGeometry>
        </mxCell>
        <mxCell id="ql6_-VDOV2YUnVmAjNdF-7" value="&lt;span style=&quot;font-size: 10px;&quot;&gt;N:1&lt;/span&gt;" style="text;html=1;align=center;verticalAlign=middle;resizable=0;points=[];autosize=1;strokeColor=none;fillColor=none;" vertex="1" parent="1">
          <mxGeometry x="740" y="15" width="40" height="30" as="geometry" />
        </mxCell>
        <mxCell id="ql6_-VDOV2YUnVmAjNdF-9" value="detalle_venta" style="rounded=0;whiteSpace=wrap;html=1;fillColor=#dae8fc;strokeColor=#6c8ebf;" vertex="1" parent="1">
          <mxGeometry x="730" y="390" width="110" height="40" as="geometry" />
        </mxCell>
        <mxCell id="ql6_-VDOV2YUnVmAjNdF-10" value="&lt;span style=&quot;font-size: 11px;&quot;&gt;id&lt;/span&gt;" style="ellipse;whiteSpace=wrap;html=1;align=center;fillColor=#e1d5e7;strokeColor=#9673a6;" vertex="1" parent="1">
          <mxGeometry x="790" y="470" width="70" height="20" as="geometry" />
        </mxCell>
        <mxCell id="ql6_-VDOV2YUnVmAjNdF-11" value="" style="endArrow=none;html=1;rounded=0;entryX=0.5;entryY=1;entryDx=0;entryDy=0;exitX=0.385;exitY=-0.15;exitDx=0;exitDy=0;exitPerimeter=0;" edge="1" parent="1" source="ql6_-VDOV2YUnVmAjNdF-10" target="ql6_-VDOV2YUnVmAjNdF-9">
          <mxGeometry relative="1" as="geometry">
            <mxPoint x="1005" y="350" as="sourcePoint" />
            <mxPoint x="955" y="325" as="targetPoint" />
          </mxGeometry>
        </mxCell>
        <mxCell id="ql6_-VDOV2YUnVmAjNdF-12" value="rol" style="rounded=0;whiteSpace=wrap;html=1;fillColor=#dae8fc;strokeColor=#6c8ebf;" vertex="1" parent="1">
          <mxGeometry x="30" y="400" width="90" height="40" as="geometry" />
        </mxCell>
        <mxCell id="ql6_-VDOV2YUnVmAjNdF-13" value="&lt;font style=&quot;font-size: 11px;&quot;&gt;id&lt;/font&gt;" style="ellipse;whiteSpace=wrap;html=1;align=center;fillColor=#e1d5e7;strokeColor=#9673a6;" vertex="1" parent="1">
          <mxGeometry x="-5" y="450" width="85" height="20" as="geometry" />
        </mxCell>
        <mxCell id="ql6_-VDOV2YUnVmAjNdF-14" value="" style="endArrow=none;html=1;rounded=0;entryX=0.25;entryY=1;entryDx=0;entryDy=0;exitX=1;exitY=0.5;exitDx=0;exitDy=0;" edge="1" parent="1" source="ql6_-VDOV2YUnVmAjNdF-19" target="0RgSkUHmzJIzv2QEmfjK-3">
          <mxGeometry relative="1" as="geometry">
            <mxPoint x="210" y="350" as="sourcePoint" />
            <mxPoint x="108" y="210" as="targetPoint" />
          </mxGeometry>
        </mxCell>
        <mxCell id="ql6_-VDOV2YUnVmAjNdF-15" value="" style="endArrow=none;html=1;rounded=0;exitX=0.5;exitY=1;exitDx=0;exitDy=0;entryX=0.5;entryY=0;entryDx=0;entryDy=0;" edge="1" parent="1" source="ql6_-VDOV2YUnVmAjNdF-12" target="ql6_-VDOV2YUnVmAjNdF-13">
          <mxGeometry relative="1" as="geometry">
            <mxPoint x="135" y="450" as="sourcePoint" />
            <mxPoint x="263" y="325" as="targetPoint" />
          </mxGeometry>
        </mxCell>
        <mxCell id="ql6_-VDOV2YUnVmAjNdF-16" value="donaciones" style="rounded=0;whiteSpace=wrap;html=1;fillColor=#dae8fc;strokeColor=#6c8ebf;" vertex="1" parent="1">
          <mxGeometry x="430" y="440" width="110" height="40" as="geometry" />
        </mxCell>
        <mxCell id="ql6_-VDOV2YUnVmAjNdF-17" value="&lt;span style=&quot;font-size: 11px;&quot;&gt;id&lt;/span&gt;" style="ellipse;whiteSpace=wrap;html=1;align=center;fillColor=#e1d5e7;strokeColor=#9673a6;" vertex="1" parent="1">
          <mxGeometry x="490" y="500" width="70" height="20" as="geometry" />
        </mxCell>
        <mxCell id="ql6_-VDOV2YUnVmAjNdF-18" value="" style="endArrow=none;html=1;rounded=0;entryX=0.5;entryY=1;entryDx=0;entryDy=0;exitX=0.407;exitY=-0.073;exitDx=0;exitDy=0;exitPerimeter=0;" edge="1" parent="1" source="ql6_-VDOV2YUnVmAjNdF-17" target="ql6_-VDOV2YUnVmAjNdF-16">
          <mxGeometry relative="1" as="geometry">
            <mxPoint x="827" y="477" as="sourcePoint" />
            <mxPoint x="795" y="440" as="targetPoint" />
          </mxGeometry>
        </mxCell>
        <mxCell id="ql6_-VDOV2YUnVmAjNdF-19" value="puede" style="shape=rhombus;perimeter=rhombusPerimeter;whiteSpace=wrap;html=1;align=center;fillColor=#d5e8d4;strokeColor=#82b366;" vertex="1" parent="1">
          <mxGeometry x="135" y="370" width="70" height="30" as="geometry" />
        </mxCell>
        <mxCell id="ql6_-VDOV2YUnVmAjNdF-20" value="" style="endArrow=none;html=1;rounded=0;entryX=0.5;entryY=0;entryDx=0;entryDy=0;exitX=0;exitY=0.5;exitDx=0;exitDy=0;" edge="1" parent="1" source="ql6_-VDOV2YUnVmAjNdF-19" target="ql6_-VDOV2YUnVmAjNdF-12">
          <mxGeometry relative="1" as="geometry">
            <mxPoint x="110" y="400" as="sourcePoint" />
            <mxPoint x="263" y="325" as="targetPoint" />
          </mxGeometry>
        </mxCell>
      </root>
    </mxGraphModel>
  </diagram>
</mxfile>
